<svg xmlns="http://www.w3.org/2000/svg" viewBox="0 0 16 16" width="16" height="16">
  <!-- Windows 95 aliased Google "G" -->
  <rect width="16" height="16" fill="#dedede" />
  <rect x="0" y="0" width="16" height="15" fill="#fdfdfd" />
  <rect x="1" y="1" width="14" height="13" fill="#ffffff" />
  <path d="M15,1 L15,15 L1,15 Z" fill="#808080" />
  <path d="M16,0 L16,16 L0,16 Z" fill="#000000" />
  <rect x="1" y="1" width="14" height="14" fill="#c0c0c0" />
  <path d="M15,1 L15,15 L1,15 Z" fill="#808080" />
  <path d="M1,1 L14,1 L1,14 Z" fill="#ffffff" />
  <rect x="2" y="2" width="12" height="12" fill="#c0c0c0" />
  <path d="M5,4 L11,4 L11,5 L4,5 L4,11 L6,13 L11,13 L12,12 L12,8 L8,8 L8,10 L10,10 L10,11 L6,11 L5,10 Z" fill="#4285f4"/>
  <path d="M5,4 L8,4 L8,5 L5,5 Z" fill="#ea4335" />
  <path d="M4,5 L5,5 L5,8 L4,8 Z" fill="#fbbc05" />
  <path d="M4,8 L6,12 L8,12 L5,9 Z" fill="#34a853" />
</svg>
